<?xml version="1.0" encoding="UTF-8" standalone="no"?>
<svg width="431px" height="52px" viewBox="0 0 431 52" version="1.1" xmlns="http://www.w3.org/2000/svg" xmlns:xlink="http://www.w3.org/1999/xlink" xmlns:sketch="http://www.bohemiancoding.com/sketch/ns">
    <!-- Generator: Sketch 3.3.1 (12005) - http://www.bohemiancoding.com/sketch -->
    <title>logo copy</title>
    <desc>Created with Sketch.</desc>
    <defs></defs>
    <g id="Page-1" stroke="none" stroke-width="1" fill="none" fill-rule="evenodd" sketch:type="MSPage">
        <g id="A4" sketch:type="MSArtboardGroup" transform="translate(-54.000000, -582.000000)" fill="#FFFFFF">
            <g id="logo-copy" sketch:type="MSLayerGroup" transform="translate(54.000000, 582.000000)">
                <path d="M211.619833,1 L256.500072,1 C258.152442,1 259.25648,2.33434396 258.963973,3.99188092 L251.043931,48.8721191 C250.752337,50.5244893 249.181608,51.864 247.524072,51.864 L202.643833,51.864 C200.991463,51.864 199.887425,50.529656 200.179931,48.8721191 L208.099973,3.99188092 C208.391568,2.33951072 209.962296,1 211.619833,1 Z M213.588388,30.4906685 L215.020859,22.3733315 L226.790998,22.3733315 L228.939705,10.197326 L237.327619,10.197326 L235.178913,22.3733315 L246.949051,22.3733315 L245.51658,30.4906685 L233.746441,30.4906685 L231.597735,42.666674 L223.20982,42.666674 L225.358526,30.4906685 L213.588388,30.4906685 Z" id="Rectangle-1" sketch:type="MSShapeGroup"></path>
                <path d="M0.627952434,15 L12.0039524,15 L11.6439524,30.984 C11.547952,32.7600089 11.4279532,34.547991 11.2839524,36.348 C11.1399517,38.148009 11.0199529,39.9599909 10.9239524,41.784 L11.2119524,41.784 C11.8839558,39.9599909 12.5319493,38.1360091 13.1559524,36.312 C13.7799556,34.4879909 14.4759486,32.7120086 15.2439524,30.984 L21.7959524,15 L31.5879524,15 L31.9479524,30.984 C31.9959527,32.7600089 31.9839528,34.547991 31.9119524,36.348 C31.8399521,38.148009 31.8039524,39.9599909 31.8039524,41.784 L32.0919524,41.784 C32.7639558,39.9599909 33.3639498,38.148009 33.8919524,36.348 C34.4199551,34.547991 35.0199491,32.7600089 35.6919524,30.984 L41.4519524,15 L52.1079524,15 L37.1319524,51 L23.7399524,51 L23.7399524,37.608 C23.8359529,35.9279916 23.8839524,34.2480084 23.8839524,32.568 C23.8839524,30.8879916 23.931952,29.0640098 24.0279524,27.096 L23.7399524,27.096 C23.0679491,29.0640098 22.4559552,30.8879916 21.9039524,32.568 C21.3519497,34.2480084 20.7639556,35.9279916 20.1399524,37.608 L14.9559524,51 L1.99595243,51 L0.627952434,15 Z M51.6759524,38.616 C51.6759524,35.207983 52.2039472,32.0160149 53.2599524,29.04 C54.3159577,26.0639851 55.7319436,23.472011 57.5079524,21.264 C59.2839613,19.055989 61.3239409,17.3160064 63.6279524,16.044 C65.931964,14.7719936 68.33194,14.136 70.8279524,14.136 C72.3639601,14.136 73.8279455,14.531996 75.2199524,15.324 C76.6119594,16.116004 77.6439491,17.207993 78.3159524,18.6 L78.4599524,18.6 L80.0439524,15 L89.2599524,15 L82.0599524,51 L72.6999524,51 L72.6999524,46.536 L72.5559524,46.536 C70.9719445,48.2160084 69.2079622,49.5239953 67.2639524,50.46 C65.3199427,51.3960047 63.4839611,51.864 61.7559524,51.864 C58.5879366,51.864 56.1159613,50.7240114 54.3399524,48.444 C52.5639436,46.1639886 51.6759524,42.8880214 51.6759524,38.616 L51.6759524,38.616 Z M66.9399524,42.504 C67.8999572,42.504 68.9559467,42.204003 70.1079524,41.604 C71.2599582,41.003997 72.3159476,39.7200098 73.2759524,37.752 L75.5799524,26.232 C75.1479503,25.2719952 74.5599562,24.5760022 73.8159524,24.144 C73.0719487,23.7119978 72.3639558,23.496 71.6919524,23.496 C70.6359472,23.496 69.6279572,23.8319966 68.6679524,24.504 C67.7079476,25.1760034 66.8559562,26.111994 66.1119524,27.312 C65.3679487,28.512006 64.7679547,29.9519916 64.3119524,31.632 C63.8559502,33.3120084 63.6279524,35.1599899 63.6279524,37.176 C63.6279524,39.0480094 63.9279494,40.4039958 64.5279524,41.244 C65.1279554,42.0840042 65.9319474,42.504 66.9399524,42.504 L66.9399524,42.504 Z M97.4679524,23.928 L92.8599524,23.928 L94.5879524,15.432 L99.7719524,15 L102.939952,5.784 L112.587952,5.784 L110.859952,15 L118.635952,15 L116.907952,23.928 L108.843952,23.928 L106.107952,37.464 C106.011952,37.8960022 105.963952,38.2919982 105.963952,38.652 L105.963952,39.768 C105.963952,41.8800106 107.115941,42.936 109.419952,42.936 C110.187956,42.936 111.051948,42.6960024 112.011952,42.216 L114.027952,50.28 C113.019947,50.6640019 111.75996,51.0239983 110.247952,51.36 C108.735945,51.6960017 106.971963,51.864 104.955952,51.864 C103.035943,51.864 101.391959,51.6120025 100.023952,51.108 C98.6559456,50.6039975 97.5399568,49.9080044 96.6759524,49.02 C95.8119481,48.1319956 95.1759545,47.0760061 94.7679524,45.852 C94.3599504,44.6279939 94.1559524,43.2720074 94.1559524,41.784 C94.1559524,40.9679959 94.2159518,40.1760038 94.3359524,39.408 C94.455953,38.6399962 94.5879517,37.8480041 94.7319524,37.032 L97.4679524,23.928 Z M118.347952,36.888 C118.347952,33.8639849 118.887947,30.9840137 119.967952,28.248 C121.047958,25.5119863 122.559943,23.1000104 124.503952,21.012 C126.447962,18.9239896 128.727939,17.2560062 131.343952,16.008 C133.959966,14.7599938 136.827937,14.136 139.947952,14.136 C142.251964,14.136 144.243944,14.6039953 145.923952,15.54 C147.603961,16.4760047 148.875948,17.4959945 149.739952,18.6 L143.403952,25.368 C142.731949,24.6959966 142.083956,24.1920017 141.459952,23.856 C140.835949,23.5199983 140.091957,23.352 139.227952,23.352 C137.931946,23.352 136.731958,23.6999965 135.627952,24.396 C134.523947,25.0920035 133.563957,26.0519939 132.747952,27.276 C131.931948,28.5000061 131.295955,29.9279918 130.839952,31.56 C130.38395,33.1920082 130.155952,34.9199909 130.155952,36.744 C130.155952,38.5680091 130.587948,40.0079947 131.451952,41.064 C132.315957,42.1200053 133.611944,42.648 135.339952,42.648 C136.443958,42.648 137.367949,42.444002 138.111952,42.036 C138.855956,41.627998 139.563949,41.1600026 140.235952,40.632 L144.987952,47.688 C143.595945,48.696005 141.927962,49.6439956 139.983952,50.532 C138.039943,51.4200044 135.627967,51.864 132.747952,51.864 C130.731942,51.864 128.847961,51.5280034 127.095952,50.856 C125.343944,50.1839966 123.819959,49.2120064 122.523952,47.94 C121.227946,46.6679936 120.207956,45.1080092 119.463952,43.26 C118.719949,41.4119908 118.347952,39.288012 118.347952,36.888 L118.347952,36.888 Z M159.243952,0.888 L170.763952,0.888 L168.315952,12.552 L166.587952,18.888 L166.875952,18.888 C168.31596,17.5919935 169.959943,16.4760047 171.807952,15.54 C173.655962,14.6039953 175.659942,14.136 177.819952,14.136 C180.795967,14.136 182.955946,14.9159922 184.299952,16.476 C185.643959,18.0360078 186.315952,20.3759844 186.315952,23.496 C186.315952,24.3120041 186.279953,25.1639956 186.207952,26.052 C186.135952,26.9400044 185.979954,27.8159957 185.739952,28.68 L181.275952,51 L169.755952,51 L173.931952,30.12 C174.075953,29.4479966 174.207952,28.8600025 174.327952,28.356 C174.447953,27.8519975 174.507952,27.3840022 174.507952,26.952 C174.507952,25.943995 174.243955,25.1880025 173.715952,24.684 C173.18795,24.1799975 172.443957,23.928 171.483952,23.928 C170.475947,23.928 169.491957,24.2519968 168.531952,24.9 C167.571948,25.5480032 166.443959,26.567993 165.147952,27.96 L160.683952,51 L149.163952,51 L159.243952,0.888 Z" id="watch" sketch:type="MSShapeGroup"></path>
                <path d="M277.827952,0.888 L289.347952,0.888 L281.571952,39.48 C281.475952,39.8640019 281.427952,40.1399992 281.427952,40.308 C281.427952,40.4760008 281.427952,40.655999 281.427952,40.848 C281.427952,41.5200034 281.571951,41.9879987 281.859952,42.252 C282.147954,42.5160013 282.483951,42.648 282.867952,42.648 L283.479952,42.648 C283.647953,42.648 283.875951,42.6000005 284.163952,42.504 L283.731952,51 C283.059949,51.2400012 282.231957,51.4439992 281.247952,51.612 C280.263948,51.7800008 279.123959,51.864 277.827952,51.864 C274.851938,51.864 272.739959,51.1560071 271.491952,49.74 C270.243946,48.3239929 269.619952,46.3920122 269.619952,43.944 C269.619952,43.2239964 269.655952,42.4800038 269.727952,41.712 C269.799953,40.9439962 269.955951,40.056005 270.195952,39.048 L277.827952,0.888 Z M289.635952,36.312 C289.635952,32.9999834 290.235946,29.9880136 291.435952,27.276 C292.635958,24.5639864 294.207943,22.2360097 296.151952,20.292 C298.095962,18.3479903 300.27994,16.8360054 302.703952,15.756 C305.127965,14.6759946 307.53994,14.136 309.939952,14.136 C312.147963,14.136 314.007945,14.4959964 315.519952,15.216 C317.03196,15.9360036 318.255948,16.9199938 319.191952,18.168 C320.127957,19.4160062 320.81195,20.8679917 321.243952,22.524 C321.675955,24.1800083 321.891952,25.9439906 321.891952,27.816 C321.891952,28.7280046 321.807953,29.6399954 321.639952,30.552 C321.471952,31.4640046 321.279954,32.315996 321.063952,33.108 C320.847951,33.900004 320.631954,34.595997 320.415952,35.196 C320.199951,35.796003 320.019953,36.2159988 319.875952,36.456 L300.435952,36.456 C300.531953,38.856012 301.275945,40.5839947 302.667952,41.64 C304.059959,42.6960053 305.811942,43.224 307.923952,43.224 C308.931957,43.224 309.987947,42.9840024 311.091952,42.504 C312.195958,42.0239976 313.155948,41.4960029 313.971952,40.92 L318.003952,48.12 C316.563945,49.128005 314.715964,50.0039963 312.459952,50.748 C310.203941,51.4920037 307.587967,51.864 304.611952,51.864 C302.403941,51.864 300.387962,51.5040036 298.563952,50.784 C296.739943,50.0639964 295.167959,49.0320067 293.847952,47.688 C292.527946,46.3439933 291.495956,44.7120096 290.751952,42.792 C290.007949,40.8719904 289.635952,38.712012 289.635952,36.312 L289.635952,36.312 Z M312.243952,29.544 C312.339953,29.2559986 312.411952,28.908002 312.459952,28.5 C312.507953,28.091998 312.531952,27.6720022 312.531952,27.24 C312.531952,25.9919938 312.243955,24.9600041 311.667952,24.144 C311.09195,23.3279959 310.03596,22.92 308.499952,22.92 C307.107945,22.92 305.763959,23.4479947 304.467952,24.504 C303.171946,25.5600053 302.115957,27.2399885 301.299952,29.544 L312.243952,29.544 Z M325.923952,38.616 C325.923952,35.207983 326.451947,32.0160149 327.507952,29.04 C328.563958,26.0639851 329.979944,23.472011 331.755952,21.264 C333.531961,19.055989 335.571941,17.3160064 337.875952,16.044 C340.179964,14.7719936 342.57994,14.136 345.075952,14.136 C346.61196,14.136 348.075945,14.531996 349.467952,15.324 C350.859959,16.116004 351.891949,17.207993 352.563952,18.6 L352.707952,18.6 L354.291952,15 L363.507952,15 L356.307952,51 L346.947952,51 L346.947952,46.536 L346.803952,46.536 C345.219945,48.2160084 343.455962,49.5239953 341.511952,50.46 C339.567943,51.3960047 337.731961,51.864 336.003952,51.864 C332.835937,51.864 330.363961,50.7240114 328.587952,48.444 C326.811944,46.1639886 325.923952,42.8880214 325.923952,38.616 L325.923952,38.616 Z M341.187952,42.504 C342.147957,42.504 343.203947,42.204003 344.355952,41.604 C345.507958,41.003997 346.563948,39.7200098 347.523952,37.752 L349.827952,26.232 C349.39595,25.2719952 348.807956,24.5760022 348.063952,24.144 C347.319949,23.7119978 346.611956,23.496 345.939952,23.496 C344.883947,23.496 343.875957,23.8319966 342.915952,24.504 C341.955948,25.1760034 341.103956,26.111994 340.359952,27.312 C339.615949,28.512006 339.015955,29.9519916 338.559952,31.632 C338.10395,33.3120084 337.875952,35.1599899 337.875952,37.176 C337.875952,39.0480094 338.175949,40.4039958 338.775952,41.244 C339.375955,42.0840042 340.179947,42.504 341.187952,42.504 L341.187952,42.504 Z M371.715952,15 L381.075952,15 L380.787952,22.056 L381.075952,22.056 C382.467959,19.7519885 384.135943,17.8560074 386.079952,16.368 C388.023962,14.8799926 390.003942,14.136 392.019952,14.136 C393.027957,14.136 393.831949,14.1959994 394.431952,14.316 C395.031955,14.4360006 395.523951,14.6159988 395.907952,14.856 L392.163952,24.792 C391.63595,24.5039986 391.023956,24.3360002 390.327952,24.288 C389.631949,24.2399998 388.995955,24.216 388.419952,24.216 C386.883945,24.216 385.455959,24.719995 384.135952,25.728 C382.815946,26.736005 381.459959,28.439988 380.067952,30.84 L376.179952,51 L364.659952,51 L371.715952,15 Z M400.515952,15 L409.875952,15 L409.875952,19.608 L410.163952,19.608 C411.843961,18.1679928 413.679942,16.8960055 415.671952,15.792 C417.663962,14.6879945 419.811941,14.136 422.115952,14.136 C425.091967,14.136 427.251946,14.9159922 428.595952,16.476 C429.939959,18.0360078 430.611952,20.3759844 430.611952,23.496 C430.611952,25.1280082 430.419954,26.8559909 430.035952,28.68 L425.571952,51 L414.051952,51 L418.227952,30.12 C418.371953,29.4479966 418.503952,28.8600025 418.623952,28.356 C418.743953,27.8519975 418.803952,27.3840022 418.803952,26.952 C418.803952,25.943995 418.539955,25.1880025 418.011952,24.684 C417.48395,24.1799975 416.739957,23.928 415.779952,23.928 C414.771947,23.928 413.787957,24.2519968 412.827952,24.9 C411.867948,25.5480032 410.739959,26.567993 409.443952,27.96 L404.979952,51 L393.459952,51 L400.515952,15 Z" id="learn" sketch:type="MSShapeGroup"></path>
            </g>
        </g>
    </g>
</svg>